<svg width="80" height="88" viewBox="0 0 80 88" fill="none" xmlns="http://www.w3.org/2000/svg">
<path d="M0 14.7692C0 6.61241 6.61241 0 14.7692 0H65.2308C73.3876 0 80 6.61241 80 14.7692V14.7692C80 33.1221 65.1221 48 46.7692 48H33.2308C14.8779 48 0 33.1221 0 14.7692V14.7692Z" fill="#F28D6A"/>
<g filter="url(#filter0_d_361_89)">
<path d="M8.00006 5.92593C8.00006 2.65313 10.6532 0 13.926 0H66.0741C69.3469 0 72 2.65313 72 5.92593V48C72 65.6731 57.6732 80 40.0001 80V80C22.3269 80 8.00006 65.6731 8.00006 48V5.92593Z" fill="#E77961"/>
</g>
<path d="M31.9999 0H47.9999V40C47.9999 44.4183 44.4182 48 39.9999 48V48C35.5817 48 31.9999 44.4183 31.9999 40V0Z" fill="#F19996"/>
<g filter="url(#filter1_d_361_89)">
<rect x="6" width="68" height="16" rx="8" fill="#F28D6A"/>
</g>
<defs>
<filter id="filter0_d_361_89" x="4.00006" y="0" width="72" height="88" filterUnits="userSpaceOnUse" color-interpolation-filters="sRGB">
<feFlood flood-opacity="0" result="BackgroundImageFix"/>
<feColorMatrix in="SourceAlpha" type="matrix" values="0 0 0 0 0 0 0 0 0 0 0 0 0 0 0 0 0 0 127 0" result="hardAlpha"/>
<feOffset dy="4"/>
<feGaussianBlur stdDeviation="2"/>
<feComposite in2="hardAlpha" operator="out"/>
<feColorMatrix type="matrix" values="0 0 0 0 0 0 0 0 0 0 0 0 0 0 0 0 0 0 0.25 0"/>
<feBlend mode="normal" in2="BackgroundImageFix" result="effect1_dropShadow_361_89"/>
<feBlend mode="normal" in="SourceGraphic" in2="effect1_dropShadow_361_89" result="shape"/>
</filter>
<filter id="filter1_d_361_89" x="2" y="0" width="76" height="24" filterUnits="userSpaceOnUse" color-interpolation-filters="sRGB">
<feFlood flood-opacity="0" result="BackgroundImageFix"/>
<feColorMatrix in="SourceAlpha" type="matrix" values="0 0 0 0 0 0 0 0 0 0 0 0 0 0 0 0 0 0 127 0" result="hardAlpha"/>
<feOffset dy="4"/>
<feGaussianBlur stdDeviation="2"/>
<feComposite in2="hardAlpha" operator="out"/>
<feColorMatrix type="matrix" values="0 0 0 0 0 0 0 0 0 0 0 0 0 0 0 0 0 0 0.25 0"/>
<feBlend mode="normal" in2="BackgroundImageFix" result="effect1_dropShadow_361_89"/>
<feBlend mode="normal" in="SourceGraphic" in2="effect1_dropShadow_361_89" result="shape"/>
</filter>
</defs>
</svg>
